<svg width="512" height="512" viewBox="0 0 512 512" xmlns="http://www.w3.org/2000/svg" fill="#0d6efd">
  <path d="M256 32 32 144l224 112 173.3-86.7v96c0 26.5-63.5 80-173.3 80-32 0-61.3-3.6-86.7-9.7v-60.4L32 176v128c0 53 102 128 224 128s224-75 224-128V144L256 32z"/>
  <path d="M170.7 293.3c0 31.8 38.1 57.7 85.3 57.7 47.1 0 85.3-25.9 85.3-57.7 0-31.8-38.2-57.6-85.3-57.6-47.2 0-85.3 25.8-85.3 57.6z"/>
  <path d="M176 360c-26.5 0-48 21.5-48 48v32c0 8.8 7.2 16 16 16h224c8.8 0 16-7.2 16-16v-32c0-26.5-21.5-48-48-48H176z"/>
</svg>
